<svg width="190" height="39" viewBox="0 0 190 39" fill="none" xmlns="http://www.w3.org/2000/svg">
<path d="M91.9182 38.4979C91.9182 34.8669 91.9271 31.3718 91.9062 27.8768C91.9062 27.4422 92.1536 27.2795 92.4396 27.0814C95.8338 24.7218 99.2249 22.3623 102.616 19.9997C102.857 19.8312 103.096 19.6597 103.388 19.4557C100.906 17.7289 98.468 16.0346 96.0334 14.3403C94.8146 13.4917 93.5959 12.643 92.3801 11.7944C92.1387 11.6259 91.9092 11.4869 91.9122 11.1143C91.9271 7.59566 91.9211 4.07699 91.9211 0.564226C92.2221 0.466649 92.3652 0.691371 92.532 0.806689C98.3935 4.8576 104.249 8.92034 110.117 12.9683C110.483 13.2196 110.635 13.4798 110.635 13.9293C110.617 17.6224 110.62 21.3185 110.635 25.0116C110.635 25.4197 110.525 25.6828 110.173 25.9253C104.264 29.9969 98.3667 34.0863 92.4665 38.1697C92.3294 38.2643 92.1834 38.3442 91.9271 38.5009L91.9182 38.4979Z" fill="#F5C443" style="fill:#F5C443;fill:color(display-p3 0.9608 0.7686 0.2627);fill-opacity:1;"/>
<path d="M44.4753 10.1208C44.4753 7.16693 44.4932 4.21302 44.4604 1.25911C44.4545 0.629295 44.6512 0.496236 45.2561 0.499193C49.2998 0.525805 53.3436 0.499193 57.3903 0.519891C58.7581 0.528762 60.0871 0.7387 61.3536 1.3419C63.3055 2.27036 64.2888 3.8789 64.6256 5.87478C65.0606 8.45317 64.852 11.073 64.7537 13.6661C64.6941 15.2421 64.0981 16.7383 62.9121 17.8915C61.8662 18.9087 60.5639 19.4172 59.1455 19.6952C58.3111 19.8578 57.4797 19.7898 56.6453 19.7928C52.8728 19.8016 49.1032 19.7809 45.3306 19.8105C44.675 19.8164 44.4456 19.6834 44.4575 18.9767C44.5022 16.0228 44.4753 13.0688 44.4753 10.1149V10.1208ZM49.27 18.4503C49.866 17.6343 50.3607 17.0222 50.7719 16.3628C50.9895 16.0168 51.2308 15.937 51.6063 15.94C53.2691 15.9548 54.9319 15.9755 56.5917 15.94C58.6687 15.8927 59.807 14.7424 59.8815 12.8944C59.956 11.0759 59.956 9.24857 59.8815 7.43305C59.81 5.70328 58.8862 4.6536 57.1638 4.47618C54.768 4.23076 52.3602 4.4407 49.9584 4.36087C49.3982 4.34312 49.2551 4.49984 49.2581 5.05573C49.282 9.28997 49.273 13.5212 49.273 17.7555C49.273 17.9181 49.273 18.0837 49.273 18.4533L49.27 18.4503Z" fill="#0A04F3" style="fill:#0A04F3;fill:color(display-p3 0.0392 0.0157 0.9529);fill-opacity:1;"/>
<path d="M30.5919 19.8341C28.5835 19.8341 26.569 19.9199 24.5665 19.8104C22.6534 19.707 20.6867 18.403 20.5734 16.1498C20.4304 13.2758 20.5079 10.3928 20.493 7.51283C20.487 6.50453 20.5198 5.49328 20.4811 4.48499C20.4602 3.97937 20.645 3.86405 21.1158 3.87883C22.1081 3.91136 23.1004 3.86109 24.0927 3.89953C24.644 3.92023 25.0225 3.73395 25.3741 3.32294C26.0446 2.53346 26.7717 1.79128 27.4541 1.00771C27.7223 0.700198 28.0232 0.567139 28.4225 0.567139C31.176 0.578966 33.9324 0.561225 36.6859 0.599664C38.1728 0.620362 39.3976 1.20287 40.2439 2.48023C40.7505 3.24311 40.9233 4.10651 40.9322 4.97583C40.968 8.4472 41.0246 11.9215 40.9233 15.3899C40.8458 18.1103 39.2844 19.7513 36.3283 19.7986C34.4181 19.8311 32.508 19.8045 30.5949 19.8045C30.5949 19.8164 30.5949 19.8252 30.5949 19.8371L30.5919 19.8341ZM36.069 10.1799C36.069 8.8996 36.069 7.61927 36.069 6.33895C36.069 4.90782 35.6042 4.43177 34.1678 4.42585C31.9359 4.41698 29.7009 4.4229 27.469 4.42585C26.5333 4.42585 25.3324 5.60565 25.3294 6.53706C25.3234 9.07405 25.3264 11.6081 25.3294 14.1451C25.3294 15.2983 25.8062 15.9015 26.9386 15.9222C29.4685 15.9724 32.0014 15.9695 34.5314 15.9222C35.5922 15.9015 36.066 15.3071 36.072 14.2456C36.078 12.8914 36.072 11.5371 36.072 10.1829L36.069 10.1799Z" fill="#0A04F3" style="fill:#0A04F3;fill:color(display-p3 0.0392 0.0157 0.9529);fill-opacity:1;"/>
<path d="M86.5428 0.572986C85.8872 1.87697 85.0052 2.99466 84.2572 4.19219C84.0784 4.47901 83.7596 4.36074 83.5003 4.36369C80.7201 4.36961 77.9428 4.36665 75.1625 4.36961C73.8573 4.36961 72.6653 5.56714 72.6653 6.87112C72.6653 7.90602 72.6773 8.93797 72.6594 9.97287C72.6534 10.3129 72.7428 10.4667 73.1123 10.446C73.5832 10.4194 74.054 10.4312 74.5278 10.443C74.9569 10.4548 75.2728 10.2833 75.5559 9.96105C76.2681 9.14495 77.013 8.36138 77.7252 7.54528C77.9905 7.24073 78.2825 7.10471 78.6907 7.10767C80.3029 7.12245 81.918 7.13428 83.5301 7.10175C84.0159 7.09288 84.1112 7.26438 84.0963 7.69608C84.0665 8.58019 84.0635 9.47021 84.0963 10.3543C84.1142 10.8274 83.9831 10.9812 83.4795 10.9753C81.5932 10.9427 79.7069 10.9753 77.8206 10.9546C77.3319 10.9486 76.9773 11.0906 76.6584 11.4661C76.0505 12.1817 75.386 12.847 74.7781 13.5625C74.3222 14.0977 73.8275 14.4762 73.0766 14.3668C72.6683 14.3076 72.6206 14.5087 72.719 14.8428C72.9306 15.5554 73.5385 15.9398 74.5397 15.9428C76.8968 15.9517 79.2539 15.9428 81.6111 15.9428C82.8507 15.9428 84.0933 15.9605 85.333 15.9339C85.8008 15.9221 85.929 16.0818 85.9111 16.5253C85.8813 17.3857 85.8664 18.2492 85.9141 19.1096C85.9439 19.6625 85.777 19.8163 85.2138 19.8104C81.0955 19.7838 76.9743 19.766 72.8561 19.8015C70.6032 19.8193 68.6425 18.4946 68.0405 16.543C67.9064 16.1054 67.7872 15.6826 67.7872 15.2184C67.7932 11.6494 67.7962 8.07752 67.7693 4.50858C67.7664 3.99704 67.8885 3.8285 68.4219 3.85215C69.4381 3.89651 70.4572 3.84624 71.4734 3.87285C71.9621 3.88468 72.3137 3.71022 72.6236 3.34949C73.3031 2.56592 74.0123 1.80896 74.6917 1.02243C74.9897 0.679433 75.3324 0.507935 75.7883 0.507935C79.2867 0.513848 82.7851 0.507935 86.2866 0.513848C86.3521 0.513848 86.4177 0.543417 86.5369 0.570029L86.5428 0.572986Z" fill="#0A04F3" style="fill:#0A04F3;fill:color(display-p3 0.0392 0.0157 0.9529);fill-opacity:1;"/>
<path d="M10.8708 19.8281C8.78485 19.8281 6.70189 19.8429 4.61594 19.8252C2.47934 19.8045 0.631791 18.2019 0.137124 16.1764C0.0209077 15.6974 0.0149478 15.2213 0.0149478 14.7423C0.0119679 11.3419 0.0268675 7.94449 4.8217e-05 4.54705C-0.0029317 3.99411 0.131165 3.82557 0.694369 3.85514C1.6837 3.9054 2.67899 3.85218 3.67131 3.87584C4.18385 3.88766 4.54442 3.71025 4.8752 3.31699C5.56952 2.49498 6.31748 1.71436 7.03564 0.907139C7.30681 0.602582 7.6495 0.513875 8.03391 0.513875C11.4578 0.513875 14.8847 0.522746 18.3087 0.505005C18.8778 0.505005 18.8033 0.691288 18.5679 1.0402C17.9392 1.97753 17.3015 2.9119 16.7144 3.87584C16.473 4.2691 16.1929 4.3785 15.7519 4.37555C12.9478 4.35781 10.1437 4.36372 7.33959 4.36668C6.07312 4.36668 4.89307 5.56125 4.89307 6.82679C4.89307 9.26325 4.89307 11.7027 4.89307 14.1391C4.89307 15.381 5.50098 15.9901 6.7436 15.9901C10.2927 15.9931 13.8418 16.0079 17.3909 15.9753C18.0226 15.9694 18.1924 16.1498 18.1507 16.753C18.0941 17.5632 18.106 18.3793 18.1507 19.1895C18.1776 19.698 18.0375 19.8577 17.5011 19.8518C15.293 19.8222 13.0849 19.84 10.8768 19.84C10.8768 19.8341 10.8768 19.8281 10.8768 19.8222L10.8708 19.8281Z" fill="#0A04F3" style="fill:#0A04F3;fill:color(display-p3 0.0392 0.0157 0.9529);fill-opacity:1;"/>
<path d="M45.2799 26.6494C45.5958 25.7505 45.8878 24.9138 46.1888 24.0829C46.2871 23.8138 46.5344 23.8493 46.7549 23.8493C49.6335 23.8493 52.5122 23.802 55.3908 23.8641C57.8134 23.9173 58.9726 25.2479 58.8534 27.4596C58.8057 28.3319 58.9786 29.2101 58.6925 30.0824C58.2694 31.3686 57.1727 32.232 55.7841 32.2409C53.6743 32.2527 51.5645 32.2468 49.4548 32.2497C48.2777 32.2497 47.8069 32.7199 47.8039 33.879C47.8039 34.6576 48.1853 35.0469 48.9482 35.0469C51.9013 35.0469 54.8544 35.0469 57.8075 35.0469C58.4948 35.0469 58.8385 35.3998 58.8385 36.1055C58.8385 36.4751 58.8028 36.8477 58.8475 37.2114C58.91 37.7407 58.7014 37.8589 58.1889 37.856C54.2673 37.8353 50.3457 37.8441 46.4272 37.8441C45.2451 37.8441 44.6541 37.2646 44.6541 36.1055C44.6541 34.9494 44.6511 33.7903 44.6511 32.6341C44.6511 30.7802 45.998 29.4437 47.8605 29.4437C49.9464 29.4437 52.0294 29.4407 54.1153 29.4437C54.6517 29.4437 55.2 29.4082 55.4325 28.8553C55.6649 28.3053 55.6828 27.6903 55.3729 27.158C55.0391 26.5844 54.4074 26.6524 53.8591 26.6494C51.204 26.6317 48.5489 26.6406 45.8937 26.6406H45.2829L45.2799 26.6494Z" fill="#0A04F3" style="fill:#0A04F3;fill:color(display-p3 0.0392 0.0157 0.9529);fill-opacity:1;"/>
<path d="M71.4883 37.8536C71.8012 36.9576 72.1111 36.1208 72.3793 35.2722C72.5015 34.8878 72.7816 35.0593 72.9842 35.0593C75.6393 35.0475 78.2974 35.0504 80.9525 35.0504C82.1832 35.0504 82.8328 33.9298 82.2428 32.8446C81.9061 32.2237 81.2863 32.2858 80.7528 32.2769C78.2706 32.2473 75.7883 32.2532 73.306 32.271C72.7667 32.2739 72.5223 32.2178 72.7965 31.5909C73.0915 30.9197 73.0647 29.9262 73.5504 29.5654C74.0331 29.2077 74.9778 29.4531 75.7198 29.4501C77.1352 29.4442 78.5507 29.456 79.9662 29.4442C80.9316 29.4383 81.1879 29.1692 81.176 28.223C81.1611 26.7889 81.0151 26.65 79.543 26.647C77.4064 26.647 75.2728 26.6381 73.1362 26.6529C72.6653 26.6559 72.4419 26.6263 72.716 26.0763C72.9991 25.5145 73.2137 24.9143 73.4014 24.314C73.5325 23.8942 73.7858 23.835 74.1762 23.838C76.4349 23.8528 78.6937 23.838 80.9525 23.8498C81.6617 23.8528 82.368 23.9622 83.0146 24.2608C84.0963 24.7605 84.5195 25.7363 84.5612 26.8156C84.6029 27.883 84.8026 28.9859 84.3615 30.0238C84.2513 30.284 84.4241 30.2988 84.5522 30.4022C85.3211 31.0321 85.6906 31.857 85.6518 32.8357C85.6161 33.6844 85.7263 34.53 85.5237 35.3905C85.178 36.8512 84.2185 37.8181 82.666 37.8358C78.9679 37.8802 75.2698 37.8506 71.4883 37.8506V37.8536Z" fill="#0A04F3" style="fill:#0A04F3;fill:color(display-p3 0.0392 0.0157 0.9529);fill-opacity:1;"/>
<path d="M69.5216 30.8459C69.5216 32.963 69.5038 35.083 69.5336 37.2002C69.5395 37.7147 69.4024 37.895 68.872 37.8595C68.2045 37.8152 67.5281 37.8122 66.8636 37.8595C66.3093 37.9009 66.2199 37.6733 66.2229 37.1854C66.2408 33.8855 66.2229 30.5856 66.2437 27.2828C66.2467 26.7802 66.1305 26.6294 65.5971 26.6116C64.8015 26.582 64.1757 26.7121 63.7078 27.4366C63.392 27.9245 62.933 28.3207 62.5337 28.7524C62.346 28.9564 60.8978 29.122 60.7041 28.9594C60.6564 28.918 60.6206 28.8352 60.6206 28.7731C60.6147 27.9836 60.6176 27.1971 60.6206 26.4076C60.6206 26.2568 60.71 26.1947 60.8531 26.1947C60.9276 26.1947 61.005 26.177 61.0766 26.1947C62.8079 26.6501 63.7585 25.5383 64.6644 24.3999C64.9862 23.9918 65.314 23.8055 65.8385 23.8233C66.8308 23.8588 67.8261 23.8765 68.8154 23.8174C69.4382 23.7819 69.5425 24.0125 69.5365 24.5655C69.5067 26.6589 69.5246 28.7524 69.5246 30.8459H69.5216Z" fill="#0A04F3" style="fill:#0A04F3;fill:color(display-p3 0.0392 0.0157 0.9529);fill-opacity:1;"/>
<path d="M189.991 29.3109C189.991 30.195 190.006 31.0821 189.988 31.9662C189.967 33.0898 189.335 33.7433 188.203 33.764C186.74 33.7935 185.279 33.7728 183.816 33.7758C183.444 33.7758 183.238 33.7817 183.542 33.3027C183.885 32.7645 184.216 32.457 184.913 32.5221C185.747 32.599 186.597 32.5221 187.44 32.5457C188.131 32.5664 188.468 32.2826 188.39 31.5936C188.346 31.1944 188.62 30.6179 188.233 30.4345C187.705 30.1891 187.565 30.8692 187.279 31.156C186.945 31.4901 186.617 31.6912 186.12 31.6468C185.506 31.5907 184.886 31.6764 184.269 31.5463C183.554 31.3926 182.961 30.7539 182.946 30.0324C182.931 29.2961 182.946 28.5569 182.937 27.8207C182.922 26.6379 183.754 26.0761 184.651 26.0554C186.287 26.017 187.923 26.0554 189.559 26.0347C189.94 26.0288 190.006 26.1826 190 26.5108C189.982 27.4451 189.994 28.3795 189.997 29.3139L189.991 29.3109ZM188.438 26.6113C188.387 26.5462 188.337 26.4812 188.289 26.4132C188.054 27.4895 187.294 27.2677 186.626 27.2766C186.254 27.2825 185.884 27.2855 185.512 27.2766C184.871 27.2618 184.433 27.4422 184.561 28.2021C184.573 28.2731 184.561 28.3499 184.561 28.4239C184.561 29.7032 185.214 30.337 186.519 30.3251C186.757 30.3251 186.981 30.3547 187.207 30.1714C188.426 29.1956 188.435 29.2015 188.435 27.5693V26.6143L188.438 26.6113Z" fill="#0C0C0C" style="fill:#0C0C0C;fill:color(display-p3 0.0471 0.0471 0.0471);fill-opacity:1;"/>
<path d="M154.813 20.1328C154.822 20.7774 155.221 20.7567 155.591 20.7597C156.881 20.7656 158.168 20.7922 159.455 20.7479C160.037 20.7272 160.069 20.9933 160.087 21.4486C160.108 21.9661 159.891 22.0518 159.435 22.043C158.046 22.0164 156.657 22.0489 155.272 22.0282C153.788 22.0075 153.162 21.3599 153.159 19.8874C153.159 19.2487 153.18 18.6071 153.153 17.9684C153.135 17.5485 153.224 17.2854 153.713 17.3682C154.431 17.4923 154.953 17.2174 155.349 16.6319C155.489 16.422 155.701 16.2978 155.978 16.3037C157.012 16.3273 158.049 16.2357 159.08 16.422C160.049 16.5964 160.618 17.8738 160.203 18.9619C159.897 19.7662 159.381 20.1121 158.407 20.124C157.218 20.1358 156.032 20.1269 154.816 20.1269L154.813 20.1328ZM154.783 19.4675C155.188 18.6987 155.88 18.9057 156.49 18.8969C156.985 18.888 157.483 18.9028 157.98 18.8909C158.46 18.8791 158.669 18.6633 158.66 18.1488C158.648 17.6402 158.359 17.5929 157.986 17.5899C157.218 17.587 156.449 17.5781 155.68 17.5899C155.117 17.6017 154.84 17.9418 154.792 18.4681C154.762 18.7993 154.786 19.1334 154.786 19.4646L154.783 19.4675Z" fill="#0C0C0C" style="fill:#0C0C0C;fill:color(display-p3 0.0471 0.0471 0.0471);fill-opacity:1;"/>
<path d="M143.942 31.6971C143.099 31.6971 142.252 31.7385 141.415 31.6853C140.393 31.6202 139.871 31.0525 139.839 30.0324C139.815 29.1956 139.847 28.3588 139.827 27.522C139.818 27.1642 139.94 27.0134 140.291 27.0755C141.022 27.2027 141.585 26.9602 141.999 26.3481C142.106 26.1885 142.258 26.0406 142.482 26.0436C143.611 26.0672 144.761 25.8957 145.864 26.2151C146.478 26.3925 146.847 26.8449 146.898 27.5486C147.035 29.5179 146.135 29.9052 144.559 29.8638C143.739 29.8431 142.92 29.8461 142.103 29.8698C141.898 29.8757 141.525 29.6835 141.507 30.062C141.489 30.4404 141.838 30.4818 142.157 30.4789C142.851 30.473 143.546 30.4789 144.243 30.4789C144.839 30.4789 145.435 30.4966 146.031 30.473C146.475 30.4552 146.752 30.47 146.749 31.0673C146.746 31.6409 146.567 31.7829 146.028 31.7503C145.336 31.7089 144.639 31.7385 143.945 31.7385C143.945 31.7237 143.945 31.7089 143.945 31.6941L143.942 31.6971ZM143.462 27.2766C143.164 27.2766 142.866 27.3002 142.571 27.2707C142.166 27.2322 141.886 27.383 141.606 27.6758C141.191 28.1075 141.236 28.7225 141.442 29.0211C141.704 29.3996 141.722 28.6752 141.996 28.6456C142.166 28.6279 142.336 28.5894 142.506 28.5894C143.2 28.5835 143.894 28.5865 144.586 28.5865C145.036 28.5865 145.387 28.4445 145.372 27.93C145.357 27.4451 145.03 27.2736 144.58 27.2795C144.207 27.2825 143.838 27.2795 143.465 27.2795L143.462 27.2766Z" fill="#0C0C0C" style="fill:#0C0C0C;fill:color(display-p3 0.0471 0.0471 0.0471);fill-opacity:1;"/>
<path d="M153.245 27.9536C153.195 27.3623 152.831 27.2824 152.411 27.2824C151.344 27.2824 150.277 27.2883 149.207 27.2765C148.972 27.2765 148.722 27.3504 148.498 27.2026C148.966 26.0465 148.972 26.011 150.122 26.0524C151.279 26.0938 152.441 25.8897 153.591 26.1825C154.452 26.4013 154.89 26.8212 154.926 27.723C154.974 28.9294 154.926 30.1358 154.944 31.3422C154.95 31.6852 154.792 31.7325 154.497 31.7473C153.427 31.8035 153.43 31.8153 153.32 30.8602C153.305 30.7242 153.359 30.532 153.153 30.5113C152.977 30.4936 152.786 30.4167 152.646 30.6651C151.758 32.2411 150.268 31.8419 148.96 31.6024C148.039 31.4339 147.61 30.6533 147.768 29.3818C147.867 28.5982 148.57 27.9714 149.377 27.9596C150.659 27.9418 151.94 27.9536 153.245 27.9536ZM153.165 28.3144C152.879 29.2074 152.22 29.2251 151.502 29.1748C151.034 29.1423 150.56 29.1719 150.09 29.1719C149.634 29.1719 149.425 29.3907 149.398 29.846C149.365 30.3694 149.693 30.4611 150.093 30.4788C150.489 30.4965 150.897 30.4226 151.279 30.4965C152.268 30.6828 152.42 29.5208 153.213 29.3493C153.379 29.3138 153.284 28.7224 153.165 28.3144Z" fill="#0C0C0C" style="fill:#0C0C0C;fill:color(display-p3 0.0471 0.0471 0.0471);fill-opacity:1;"/>
<path d="M135.643 12.2972C134.898 12.2972 134.156 12.312 133.411 12.2942C132.368 12.2676 131.692 11.5698 131.68 10.5231C131.671 9.76019 131.701 8.99732 131.668 8.23445C131.65 7.82344 131.766 7.64011 132.195 7.70812C132.91 7.82344 133.447 7.51593 133.81 6.93934C133.968 6.688 134.159 6.62 134.412 6.62C135.33 6.62295 136.248 6.64069 137.163 6.63774C138.039 6.63774 138.861 7.20546 138.811 8.55379C138.76 9.90508 138.224 10.3279 137.109 10.39C136.072 10.4462 135.026 10.393 133.986 10.4196C133.766 10.4255 133.366 10.2155 133.351 10.6354C133.339 11.0109 133.73 11.0553 134.022 11.0612C135.014 11.0819 136.007 11.0701 136.996 11.073C137.27 11.073 137.541 11.073 137.815 11.073C138.468 11.073 138.778 11.5491 138.531 12.1434C138.432 12.377 138.25 12.3001 138.095 12.3031C137.276 12.312 136.459 12.3061 135.64 12.3061V12.3001L135.643 12.2972ZM135.294 7.86188C135.071 7.86188 134.841 7.89736 134.627 7.85597C133.667 7.6756 133.009 8.42073 133.176 9.42311C133.193 9.53547 133.125 9.68923 133.265 9.74541C133.447 9.81933 133.551 9.67148 133.596 9.53843C133.718 9.16586 134.016 9.17769 134.317 9.17769C135.011 9.17769 135.706 9.1836 136.403 9.17769C136.835 9.17177 137.187 9.07124 137.198 8.52718C137.21 7.96537 136.781 7.92693 136.412 7.87371C136.048 7.82048 135.67 7.86188 135.297 7.86188H135.294Z" fill="#0C0C0C" style="fill:#0C0C0C;fill:color(display-p3 0.0471 0.0471 0.0471);fill-opacity:1;"/>
<path d="M119.948 31.7741C119.45 31.7741 118.955 31.7534 118.458 31.777C117.221 31.8362 116.515 30.9047 116.53 29.9645C116.542 29.2755 116.518 28.5866 116.536 27.8976C116.563 26.8302 117.105 26.1294 118.157 26.0821C119.531 26.02 120.919 25.8988 122.293 26.1708C123.193 26.3512 123.652 26.8509 123.688 27.7616C123.714 28.4742 123.705 29.1898 123.693 29.9024C123.673 31.0201 122.957 31.7327 121.813 31.7681C121.193 31.7888 120.574 31.7711 119.954 31.7711L119.948 31.7741ZM120.064 30.4997C120.46 30.4997 120.854 30.4849 121.25 30.5026C121.843 30.5292 122.12 30.269 122.099 29.6747C122.081 29.1602 122.084 28.6457 122.099 28.1312C122.117 27.5339 121.807 27.2826 121.241 27.2826C120.648 27.2826 120.055 27.2826 119.462 27.2826C118.19 27.2826 118.148 27.3269 118.145 28.6073C118.145 30.68 117.978 30.5026 120.061 30.5026L120.064 30.4997Z" fill="#0C0C0C" style="fill:#0C0C0C;fill:color(display-p3 0.0471 0.0471 0.0471);fill-opacity:1;"/>
<path d="M123.303 8.32914C123.303 7.19666 123.333 6.06417 123.291 4.93169C123.267 4.27231 123.714 4.44677 124.03 4.47338C124.343 4.49999 124.882 4.18065 124.85 4.91987C124.814 5.73005 124.835 6.54319 124.85 7.35633C124.853 7.52191 124.716 7.7762 125.014 7.84421C125.222 7.89152 125.437 7.84125 125.538 7.65201C126.381 6.08487 127.833 6.64372 129.09 6.6999C129.847 6.73243 130.44 7.50121 130.461 8.27296C130.494 9.47936 130.461 10.6858 130.476 11.8922C130.479 12.2174 130.363 12.3357 130.047 12.3091C129.826 12.2913 129.597 12.2854 129.376 12.3091C128.962 12.3593 128.822 12.2145 128.834 11.7887C128.864 10.7567 128.846 9.72182 128.843 8.68692C128.843 8.47107 128.882 8.24043 128.688 8.06598C128.405 7.80873 126.432 7.76142 126.11 8.00979C125.717 8.31435 125.535 8.85546 124.987 9.00922C124.921 9.02696 124.915 9.32265 124.912 9.49119C124.903 10.2541 124.882 11.0169 124.912 11.7798C124.93 12.2026 124.79 12.3623 124.37 12.3091C124.173 12.2854 123.971 12.2825 123.777 12.3091C123.36 12.3653 123.288 12.1642 123.294 11.8005C123.312 10.6444 123.3 9.48527 123.3 8.32914H123.303Z" fill="#0C0C0C" style="fill:#0C0C0C;fill:color(display-p3 0.0471 0.0471 0.0471);fill-opacity:1;"/>
<path d="M119.051 16.6529C119.766 16.2566 120.809 16.1768 122.54 16.369C122.037 17.5902 122.037 17.5813 120.696 17.5902C118.815 17.602 119.039 17.3684 119.027 19.2312C119.021 19.9941 119.003 20.757 119.036 21.5199C119.054 21.9545 118.896 22.058 118.485 22.0462C117.147 22.0107 117.43 22.1526 117.406 21.0113C117.391 20.346 117.373 19.6807 117.412 19.0184C117.442 18.5334 117.343 18.291 116.783 18.3501C116.44 18.3856 115.999 18.5393 116.008 17.8474C116.017 17.2472 116.202 16.9604 116.792 17.0343C117.319 17.0993 117.4 16.8628 117.382 16.4134C117.367 16.029 117.293 15.6327 117.439 15.2513C117.754 14.4323 118.255 14.0715 119.155 14.0656C120.567 14.0538 121.98 14.0626 123.398 14.0626C123.032 15.1567 122.853 15.2897 121.762 15.2897C121.268 15.2897 120.77 15.2897 120.275 15.2897C119.176 15.2957 119 15.479 119.051 16.6558V16.6529Z" fill="#0C0C0C" style="fill:#0C0C0C;fill:color(display-p3 0.0471 0.0471 0.0471);fill-opacity:1;"/>
<path d="M130.449 19.2338C130.449 19.9967 130.434 20.7596 130.455 21.5224C130.464 21.8891 130.371 22.0517 129.96 22.0458C129.343 22.034 128.661 22.1818 128.861 21.1706C128.932 20.8069 128.625 20.8601 128.42 20.8838C128.315 20.8956 128.187 20.9902 128.133 21.0819C127.329 22.4568 126.03 22.0665 124.847 21.9453C123.971 21.8536 123.41 21.2267 123.381 20.3574C123.339 19.154 123.375 17.9446 123.363 16.7382C123.36 16.4248 123.47 16.3243 123.792 16.3006C124.99 16.2149 124.987 16.2001 124.987 17.3651C124.987 18.2758 124.999 19.1865 124.981 20.0972C124.972 20.5703 125.151 20.7655 125.642 20.7241C126.086 20.6856 126.536 20.6975 126.98 20.7241C127.406 20.7477 127.636 20.4757 127.964 20.2805C129.075 19.6241 128.798 18.6277 128.825 17.6844C128.828 17.5366 128.825 17.3887 128.825 17.2409C128.825 16.3745 129.376 16.0197 130.222 16.3154C130.494 16.41 130.44 16.6111 130.44 16.7944C130.446 17.6075 130.44 18.4177 130.44 19.2309L130.449 19.2338Z" fill="#0C0C0C" style="fill:#0C0C0C;fill:color(display-p3 0.0471 0.0471 0.0471);fill-opacity:1;"/>
<path d="M131.715 23.8114C131.411 24.7517 130.884 25.1804 129.904 25.0267C129.346 24.9379 128.762 25.0503 128.196 25C127.672 24.9557 127.436 25.2455 127.26 25.6387C127.171 25.8398 127.126 26.1089 127.275 26.2685C127.448 26.4548 127.615 26.2183 127.782 26.1355C128.178 25.9344 128.604 26.0586 129.016 26.0438C129.609 26.0202 130.205 26.0379 130.804 26.0379C130.595 27.0048 130.27 27.2798 129.325 27.2768C126.953 27.2739 127.374 27.1586 127.341 29.2402C127.332 29.8789 127.32 30.5205 127.347 31.1592C127.362 31.5347 127.26 31.7121 126.855 31.6648C126.635 31.6382 126.405 31.6353 126.188 31.6648C125.77 31.721 125.699 31.5229 125.708 31.1592C125.732 30.3224 125.69 29.4856 125.726 28.6518C125.747 28.2053 125.627 28.0101 125.157 28.0841C124.665 28.1609 124.403 28.0604 124.4 27.4424C124.4 26.8096 124.692 26.7416 125.165 26.8126C125.657 26.8865 125.732 26.6588 125.726 26.2301C125.72 25.6772 125.61 25.1154 125.922 24.5772C126.191 24.1159 126.536 23.8203 127.067 23.8143C128.601 23.7996 130.136 23.8084 131.718 23.8084L131.715 23.8114Z" fill="#0C0C0C" style="fill:#0C0C0C;fill:color(display-p3 0.0471 0.0471 0.0471);fill-opacity:1;"/>
<path d="M174.567 28.7935C174.567 28.0543 174.614 27.3121 174.552 26.5788C174.501 25.9815 174.841 25.9845 175.225 26.0496C175.553 26.1057 176.146 25.7391 176.089 26.5315C176.075 26.7503 175.934 27.0608 176.203 27.1968C176.527 27.3594 176.802 27.117 176.951 26.8804C177.728 25.6297 178.956 25.9727 180.02 26.1176C181.367 26.3009 181.733 26.8893 181.733 28.2643C181.733 29.2252 181.713 30.1833 181.742 31.1442C181.754 31.5641 181.626 31.7297 181.206 31.6706C181.06 31.6499 180.905 31.6499 180.759 31.6706C180.258 31.7474 180.065 31.5878 180.091 31.0467C180.139 30.065 180.083 29.0774 180.112 28.0957C180.13 27.5162 179.871 27.2855 179.326 27.2855C178.902 27.2855 178.482 27.3003 178.062 27.2796C177.639 27.2619 177.401 27.5162 177.07 27.735C176.075 28.3944 176.122 29.311 176.185 30.2808C176.197 30.4523 176.161 30.6297 176.191 30.7953C176.31 31.4932 176.066 31.7267 175.327 31.6942C174.734 31.6706 174.495 31.5759 174.555 30.9343C174.62 30.2276 174.57 29.5091 174.57 28.7935H174.567Z" fill="#0C0C0C" style="fill:#0C0C0C;fill:color(display-p3 0.0471 0.0471 0.0471);fill-opacity:1;"/>
<path d="M145.378 19.1952C145.378 19.9344 145.343 20.6736 145.39 21.4099C145.426 21.951 145.212 22.155 144.723 22.0249C144.392 21.9362 143.835 22.4093 143.737 21.6582C143.704 21.398 143.936 21.0107 143.564 20.8954C143.167 20.7712 142.965 21.126 142.78 21.4187C142.476 21.9037 142.062 22.1254 141.472 22.0426C140.751 21.9391 140 22.226 139.296 21.8534C138.68 21.5281 138.325 21.0491 138.325 20.3395C138.325 19.1833 138.337 18.0272 138.316 16.8711C138.31 16.4985 138.456 16.4364 138.793 16.4275C139.919 16.392 139.919 16.3802 139.919 17.4743C139.919 18.2874 139.934 19.0976 139.913 19.9107C139.898 20.4903 140.089 20.7948 140.733 20.7298C141.126 20.6913 141.531 20.6825 141.922 20.7298C142.416 20.7919 142.628 20.4548 142.971 20.2182C144.181 19.3785 143.716 18.1721 143.719 17.1047C143.722 16.3654 144.085 16.4394 144.574 16.4216C145.107 16.4039 145.468 16.4216 145.393 17.1313C145.319 17.8113 145.378 18.5062 145.378 19.1952Z" fill="#0C0C0C" style="fill:#0C0C0C;fill:color(display-p3 0.0471 0.0471 0.0471);fill-opacity:1;"/>
<path d="M163.076 28.814C163.076 28.0748 163.124 27.3326 163.061 26.5993C163.008 25.9517 163.395 26.0049 163.791 26.0463C164.14 26.0818 164.7 25.798 164.626 26.5638C164.605 26.7678 164.444 27.0842 164.769 27.2054C165.108 27.3296 165.287 27.0576 165.517 26.8595C165.821 26.5993 165.856 26.0434 166.387 26.0463C167.433 26.0552 168.523 25.8601 169.489 26.4012C170.061 26.7235 170.228 27.3503 170.24 27.9801C170.258 29.0387 170.222 30.1002 170.255 31.1588C170.27 31.6112 170.085 31.6762 169.692 31.6762C168.619 31.6762 168.619 31.694 168.619 30.6531C168.619 29.8163 168.607 28.9766 168.622 28.1398C168.634 27.5632 168.389 27.2734 167.796 27.2823C167.373 27.2882 166.953 27.2882 166.53 27.2823C166.11 27.2734 165.871 27.5425 165.544 27.7584C164.247 28.6159 164.682 29.8696 164.706 30.9814C164.721 31.8241 164.259 31.6289 163.785 31.6792C163.195 31.7413 163.02 31.5372 163.061 30.9607C163.112 30.251 163.073 29.5325 163.073 28.8199L163.076 28.814Z" fill="#0C0C0C" style="fill:#0C0C0C;fill:color(display-p3 0.0471 0.0471 0.0471);fill-opacity:1;"/>
<path d="M130.964 17.6229C131.435 17.0019 131.486 16.1829 132.434 16.2834C132.815 16.3218 132.738 16.0202 132.711 15.831C132.642 15.3342 132.851 15.1775 133.322 15.2455C133.515 15.2721 133.721 15.2692 133.915 15.2455C134.269 15.2041 134.427 15.3342 134.362 15.692C134.263 16.2361 134.522 16.3603 135.02 16.3189C135.512 16.2775 136.012 16.3041 136.507 16.313C136.626 16.313 136.909 16.2863 136.76 16.4933C136.474 16.8955 136.391 17.5667 135.643 17.475C135.422 17.4484 135.196 17.4868 134.975 17.4661C134.576 17.4307 134.373 17.5667 134.382 17.9984C134.4 18.6873 134.388 19.3763 134.388 20.0652C134.388 20.5354 134.579 20.7808 135.092 20.763C135.688 20.7423 136.284 20.7897 136.877 20.7512C137.479 20.7128 137.327 21.1149 137.339 21.4313C137.35 21.7506 137.416 22.0729 136.883 22.0434C136.141 22.002 135.396 22.0168 134.651 22.0315C133.441 22.0552 132.74 21.1327 132.77 20.1421C132.791 19.5034 132.743 18.8618 132.785 18.2231C132.815 17.747 132.678 17.5519 132.177 17.611C131.835 17.6495 131.486 17.6199 130.958 17.6199L130.964 17.6229Z" fill="#0C0C0C" style="fill:#0C0C0C;fill:color(display-p3 0.0471 0.0471 0.0471);fill-opacity:1;"/>
<path d="M115.779 7.86516C116.363 7.31223 116.345 6.42221 117.299 6.5257C117.579 6.55527 117.543 6.31281 117.516 6.16496C117.388 5.50558 117.769 5.44349 118.27 5.49671C118.392 5.50854 118.52 5.51445 118.64 5.49671C119.054 5.43757 119.245 5.59429 119.167 6.01416C119.06 6.58188 119.367 6.65876 119.84 6.63215C120.431 6.59667 121.024 6.62328 121.673 6.62328C121.301 7.4719 120.878 8.10171 119.843 7.87108C119.399 7.7735 119.23 7.95387 119.262 8.42106C119.304 9.05678 119.304 9.70138 119.262 10.3371C119.227 10.8989 119.516 11.0704 120.001 11.0734C120.571 11.0793 121.143 11.1118 121.709 11.0675C122.257 11.0261 122.159 11.375 122.141 11.6736C122.123 11.9456 122.32 12.3419 121.739 12.3182C120.848 12.2827 119.954 12.3241 119.063 12.2975C118.392 12.2768 117.689 11.4903 117.665 10.7422C117.638 9.98228 117.623 9.21645 117.665 8.45654C117.695 7.95091 117.51 7.81194 117.039 7.86221C116.697 7.89769 116.348 7.86812 115.776 7.86812L115.779 7.86516Z" fill="#0C0C0C" style="fill:#0C0C0C;fill:color(display-p3 0.0471 0.0471 0.0471);fill-opacity:1;"/>
<path d="M152.915 16.3329C152.569 17.2525 152.047 17.8587 151.043 17.5778C149.813 17.2318 149.211 18.2017 148.4 18.7339C148.326 18.7842 148.361 19.0148 148.361 19.1597C148.358 19.8989 148.317 20.6382 148.373 21.3744C148.418 21.9569 148.186 22.158 147.664 22.0279C147.336 21.9451 146.734 22.3945 146.731 21.605C146.731 20.0054 146.737 18.4057 146.725 16.806C146.725 16.5133 146.83 16.401 147.113 16.4335C147.616 16.4897 148.349 16.1201 148.248 17.1904C148.2 17.6724 148.844 17.5275 148.927 17.3797C149.818 15.7682 151.347 16.4512 152.643 16.3152C152.715 16.3063 152.789 16.3241 152.915 16.3329Z" fill="#0C0C0C" style="fill:#0C0C0C;fill:color(display-p3 0.0471 0.0471 0.0471);fill-opacity:1;"/>
<path d="M162.417 26.0405C162.158 27.2587 161.312 27.4923 160.349 27.2587C159.199 26.9808 158.773 28.0748 157.936 28.3587C157.882 28.3764 157.903 28.6336 157.9 28.7815C157.9 29.568 157.876 30.3575 157.909 31.144C157.927 31.5669 157.787 31.7206 157.37 31.6674C157.149 31.6408 156.923 31.6497 156.699 31.6674C156.389 31.6911 156.261 31.5935 156.264 31.2593C156.279 29.6597 156.276 28.06 156.27 26.4574C156.267 25.7034 156.836 26.1233 157.14 26.0582C157.417 25.9961 157.799 25.9163 157.772 26.4692C157.76 26.7117 157.548 27.0961 157.951 27.2203C158.344 27.3415 158.547 27.0576 158.761 26.756C159.134 26.2327 159.622 25.9459 160.335 26.0227C161.02 26.0967 161.72 26.0375 162.42 26.0375L162.417 26.0405Z" fill="#0C0C0C" style="fill:#0C0C0C;fill:color(display-p3 0.0471 0.0471 0.0471);fill-opacity:1;"/>
<path d="M136.942 27.8176C136.942 26.6881 136.963 25.5586 136.933 24.432C136.921 23.9648 137.031 23.7933 137.541 23.8081C138.554 23.8377 138.557 23.8052 138.557 24.8135C138.557 26.9247 138.524 29.0359 138.575 31.1441C138.59 31.8331 138.212 31.7473 137.794 31.7384C137.371 31.7296 136.891 31.8804 136.927 31.1293C136.981 30.0264 136.942 28.9206 136.942 27.8176Z" fill="#0C0C0C" style="fill:#0C0C0C;fill:color(display-p3 0.0471 0.0471 0.0471);fill-opacity:1;"/>
<path d="M171.584 28.8525C171.584 28.0926 171.605 27.3327 171.575 26.5728C171.56 26.1707 171.661 26.0287 172.096 26.0287C173.199 26.0287 173.199 26.0051 173.199 27.105C173.199 28.4534 173.166 29.8047 173.211 31.15C173.241 31.9957 172.653 31.6763 172.257 31.7355C171.789 31.8065 171.527 31.703 171.569 31.1293C171.622 30.3724 171.584 29.6095 171.584 28.8496V28.8525Z" fill="#0C0C0C" style="fill:#0C0C0C;fill:color(display-p3 0.0471 0.0471 0.0471);fill-opacity:1;"/>
<path d="M172.299 25.0145C171.9 24.979 171.405 25.2185 171.42 24.3965C171.435 23.61 171.885 23.7608 172.329 23.7578C172.779 23.7578 173.232 23.6188 173.232 24.4054C173.232 25.2215 172.728 24.976 172.302 25.0145H172.299Z" fill="#0C0C0C" style="fill:#0C0C0C;fill:color(display-p3 0.0471 0.0471 0.0471);fill-opacity:1;"/>
</svg>
